<svg width="98" height="24" viewBox="0 0 98 24" fill="none" xmlns="http://www.w3.org/2000/svg">
<path d="M25.7577 8.50543H35.672V10.3466H31.7683V20.7255H29.6287V10.3466H25.7413L25.7577 8.50543ZM35.2473 11.8782H37.0767V13.589H37.1093C37.1747 13.3446 37.289 13.1165 37.4523 12.8884C37.6157 12.6603 37.8117 12.4484 38.0567 12.2692C38.2853 12.0737 38.5467 11.9271 38.8407 11.813C39.1183 11.6989 39.4123 11.6338 39.7063 11.6338C39.935 11.6338 40.0983 11.6501 40.18 11.6501C40.2617 11.6664 40.3597 11.6827 40.4413 11.6827V13.5564C40.3107 13.5238 40.1637 13.5075 40.0167 13.4912C39.8697 13.4749 39.739 13.4586 39.592 13.4586C39.2653 13.4586 38.955 13.5238 38.661 13.6542C38.367 13.7845 38.122 13.98 37.8933 14.2244C37.681 14.4851 37.5013 14.7947 37.3707 15.1695C37.24 15.5442 37.1747 15.9841 37.1747 16.4729V20.6766H35.2147L35.2473 11.8782ZM49.4247 20.7255H47.4973V19.4872H47.4647C47.2197 19.9434 46.8603 20.2856 46.3867 20.5626C45.913 20.8396 45.423 20.9699 44.933 20.9699C43.7733 20.9699 42.924 20.6929 42.4013 20.1064C41.8787 19.5361 41.6173 18.6562 41.6173 17.4994V11.8782H43.5773V17.3039C43.5773 18.086 43.7243 18.64 44.0347 18.9495C44.3287 19.2754 44.7533 19.4383 45.2923 19.4383C45.7007 19.4383 46.0437 19.3732 46.3213 19.2428C46.599 19.1125 46.8277 18.9495 46.991 18.7377C47.1707 18.5259 47.285 18.2652 47.3667 17.9719C47.4483 17.6786 47.481 17.3528 47.481 17.0106V11.8782H49.441V20.7255H49.4247ZM52.7567 17.8905C52.822 18.4607 53.0343 18.8518 53.41 19.0962C53.7857 19.3243 54.243 19.4383 54.7657 19.4383C54.9453 19.4383 55.1577 19.422 55.3863 19.3895C55.615 19.3569 55.8437 19.308 56.0397 19.2265C56.252 19.1451 56.4153 19.031 56.546 18.8681C56.6767 18.7051 56.742 18.5096 56.7257 18.2652C56.7093 18.0208 56.6277 17.809 56.448 17.6461C56.2683 17.4831 56.056 17.3691 55.7947 17.255C55.5333 17.1573 55.223 17.0758 54.88 17.0106C54.537 16.9454 54.194 16.864 53.8347 16.7825C53.4753 16.701 53.116 16.6033 52.773 16.4892C52.43 16.3752 52.136 16.2285 51.8583 16.0167C51.597 15.8212 51.3683 15.5768 51.2213 15.2672C51.058 14.9576 50.9763 14.5992 50.9763 14.143C50.9763 13.6542 51.0907 13.2631 51.3357 12.9372C51.5643 12.6114 51.8747 12.3507 52.234 12.1552C52.5933 11.9596 53.0017 11.813 53.4427 11.7315C53.8837 11.6501 54.3083 11.6175 54.7003 11.6175C55.1577 11.6175 55.5987 11.6664 56.007 11.7641C56.4153 11.8619 56.8073 12.0085 57.134 12.2366C57.477 12.4484 57.7547 12.7417 57.967 13.0839C58.1957 13.426 58.3263 13.8497 58.3917 14.3385H56.35C56.252 13.866 56.0397 13.5564 55.713 13.3935C55.37 13.2305 54.9943 13.1491 54.5533 13.1491C54.4227 13.1491 54.243 13.1654 54.0633 13.1816C53.8673 13.2142 53.704 13.2468 53.5243 13.312C53.361 13.3772 53.214 13.4749 53.0997 13.589C52.9853 13.703 52.92 13.866 52.92 14.0615C52.92 14.3059 53.0017 14.4851 53.165 14.6318C53.3283 14.7784 53.5407 14.8925 53.8183 15.0065C54.0797 15.1043 54.39 15.1857 54.733 15.2509C55.076 15.3161 55.4353 15.3976 55.7947 15.479C56.154 15.5605 56.497 15.6583 56.84 15.7723C57.183 15.8864 57.4933 16.033 57.7547 16.2448C58.016 16.4403 58.2447 16.6847 58.408 16.978C58.5713 17.2713 58.653 17.6461 58.653 18.0697C58.653 18.5911 58.5387 19.031 58.2937 19.4057C58.0487 19.7642 57.7383 20.0738 57.3627 20.3019C56.987 20.53 56.546 20.6929 56.0887 20.807C55.615 20.9047 55.1577 20.9699 54.7003 20.9699C54.145 20.9699 53.6223 20.9047 53.1487 20.7744C52.675 20.644 52.2503 20.4485 51.9073 20.2041C51.5643 19.9434 51.2867 19.6339 51.0907 19.2428C50.8947 18.8681 50.7803 18.4118 50.764 17.8742H52.7403V17.8905H52.7567ZM59.2083 11.8782H60.6947V9.20605H62.6547V11.8619H64.4186V13.312H62.6547V18.0371C62.6547 18.2489 62.671 18.4118 62.6873 18.5748C62.7036 18.7214 62.7527 18.8518 62.8017 18.9495C62.867 19.0473 62.965 19.1288 63.0793 19.1776C63.21 19.2265 63.3733 19.2591 63.602 19.2591C63.7327 19.2591 63.8797 19.2591 64.0103 19.2428C64.141 19.2265 64.288 19.2102 64.4186 19.1776V20.6929C64.2063 20.7255 63.994 20.7418 63.7817 20.7581C63.5693 20.7907 63.3733 20.7907 63.1446 20.7907C62.622 20.7907 62.2136 20.7418 61.9033 20.6441C61.593 20.5463 61.348 20.3996 61.1683 20.2204C60.9887 20.0249 60.8743 19.7968 60.809 19.5198C60.7436 19.2428 60.711 18.9006 60.6947 18.5422V13.3283H59.2083V11.8456V11.8782ZM65.7906 11.8782H67.6363V13.0839H67.669C67.9466 12.5625 68.3223 12.204 68.8123 11.9759C69.3023 11.7478 69.825 11.6338 70.413 11.6338C71.1153 11.6338 71.7196 11.7478 72.2423 12.0085C72.765 12.2529 73.1896 12.5788 73.5326 13.0187C73.8756 13.4423 74.137 13.9474 74.3003 14.5177C74.4636 15.088 74.5616 15.7071 74.5616 16.3426C74.5616 16.9454 74.48 17.5157 74.333 18.0697C74.1696 18.6237 73.941 19.1288 73.6306 19.5524C73.3203 19.976 72.9283 20.3182 72.4383 20.5789C71.9483 20.8396 71.393 20.9699 70.7396 20.9699C70.462 20.9699 70.168 20.9373 69.8903 20.8885C69.6126 20.8396 69.335 20.7581 69.0736 20.6441C68.8123 20.53 68.5673 20.3834 68.355 20.2041C68.1263 20.0249 67.9466 19.8131 67.7996 19.585H67.767V24.0005H65.807V11.8782H65.7906ZM72.6343 16.31C72.6343 15.919 72.5853 15.5279 72.471 15.1532C72.373 14.7784 72.2096 14.4525 71.9973 14.1593C71.785 13.866 71.5236 13.6379 71.2296 13.4586C70.9193 13.2794 70.56 13.1979 70.168 13.1979C69.3513 13.1979 68.7306 13.4749 68.306 14.0452C67.8977 14.6155 67.6853 15.3813 67.6853 16.3263C67.6853 16.7825 67.7343 17.1898 67.8486 17.5646C67.963 17.9393 68.11 18.2652 68.3386 18.5422C68.551 18.8192 68.8123 19.031 69.1227 19.1939C69.433 19.3569 69.776 19.4383 70.1843 19.4383C70.6416 19.4383 71.001 19.3406 71.3113 19.1613C71.6216 18.9821 71.8666 18.7377 72.079 18.4607C72.275 18.1674 72.422 17.8416 72.5036 17.4668C72.5853 17.0758 72.6343 16.701 72.6343 16.31ZM76.0806 8.50543H78.0406V10.3466H76.0806V8.50543ZM76.0806 11.8782H78.0406V20.7255H76.0806V11.8782ZM79.7883 8.50543H81.7483V20.7255H79.7883V8.50543ZM87.7263 20.9699C87.024 20.9699 86.387 20.8559 85.8316 20.6115C85.2763 20.3671 84.819 20.0575 84.427 19.6501C84.0513 19.2428 83.7573 18.7377 83.5613 18.1674C83.3653 17.5972 83.251 16.9617 83.251 16.2937C83.251 15.6257 83.349 15.0065 83.5613 14.4362C83.7573 13.866 84.0513 13.3772 84.427 12.9535C84.8026 12.5462 85.2763 12.2203 85.8316 11.9922C86.387 11.7641 87.024 11.6338 87.7263 11.6338C88.4286 11.6338 89.0656 11.7478 89.621 11.9922C90.1763 12.2203 90.6336 12.5462 91.0256 12.9535C91.4013 13.3609 91.6953 13.866 91.8913 14.4362C92.0873 15.0065 92.2016 15.6257 92.2016 16.2937C92.2016 16.978 92.1036 17.5972 91.8913 18.1674C91.679 18.7377 91.4013 19.2265 91.0256 19.6501C90.65 20.0575 90.1763 20.3834 89.621 20.6115C89.0656 20.8396 88.445 20.9699 87.7263 20.9699ZM87.7263 19.422C88.151 19.422 88.543 19.3243 88.8533 19.1451C89.18 18.9658 89.425 18.7214 89.6373 18.4281C89.8496 18.1349 89.9966 17.7927 90.0946 17.4342C90.1926 17.0595 90.2416 16.6847 90.2416 16.2937C90.2416 15.9189 90.1926 15.5442 90.0946 15.1695C89.9966 14.7947 89.8496 14.4688 89.6373 14.1755C89.425 13.8823 89.1636 13.6542 88.8533 13.4749C88.5266 13.2957 88.151 13.1979 87.7263 13.1979C87.3016 13.1979 86.9096 13.2957 86.5993 13.4749C86.2726 13.6542 86.0276 13.8986 85.8153 14.1755C85.603 14.4688 85.456 14.7947 85.358 15.1695C85.26 15.5442 85.211 15.9189 85.211 16.2937C85.211 16.6847 85.26 17.0595 85.358 17.4342C85.456 17.809 85.603 18.1349 85.8153 18.4281C86.0276 18.7214 86.289 18.9658 86.5993 19.1451C86.926 19.3406 87.3016 19.422 87.7263 19.422ZM92.7896 11.8782H94.276V9.20605H96.236V11.8619H98V13.312H96.236V18.0371C96.236 18.2489 96.2523 18.4118 96.2686 18.5748C96.285 18.7214 96.334 18.8518 96.383 18.9495C96.4483 19.0473 96.5463 19.1288 96.6606 19.1776C96.7913 19.2265 96.9546 19.2591 97.1833 19.2591C97.314 19.2591 97.461 19.2591 97.5916 19.2428C97.7223 19.2265 97.8693 19.2102 98 19.1776V20.6929C97.7876 20.7255 97.5753 20.7418 97.363 20.7581C97.1506 20.7907 96.9546 20.7907 96.726 20.7907C96.2033 20.7907 95.795 20.7418 95.4846 20.6441C95.1743 20.5463 94.9293 20.3996 94.7496 20.2204C94.57 20.0249 94.4556 19.7968 94.3903 19.5198C94.325 19.2428 94.2923 18.9006 94.276 18.5422V13.3283H92.7896V11.8456V11.8782Z" fill="white"/>
<path d="M23.471 8.50536H14.504L11.7437 0.000183105L8.967 8.50536L0 8.48907L7.252 13.7519L4.47533 22.257L11.7273 16.9942L18.9793 22.257L16.219 13.7519L23.471 8.50536Z" fill="#00B67A"/>
<path d="M16.8396 15.6745L16.219 13.7519L11.7437 16.9943L16.8396 15.6745Z" fill="#005128"/>
</svg>
